<svg width="102" xmlns="http://www.w3.org/2000/svg" height="92" id="screenshot-ceb75a11-c423-80e4-8007-b9338107c381" viewBox="-21 -21 102 92" xmlns:xlink="http://www.w3.org/1999/xlink" fill="none" version="1.1"><g id="shape-ceb75a11-c423-80e4-8007-b9338107c381" rx="0" ry="0"><g id="shape-ceb75a11-c423-80e4-8007-b91601cb5926"><defs><filter id="filter-render-2" x="-0.35" y="-0.42" width="1.7" height="1.84" filterUnits="objectBoundingBox" color-interpolation-filters="sRGB"><feFlood flood-opacity="0" result="BackgroundImageFix"/><feColorMatrix in="SourceAlpha" type="matrix" values="0 0 0 0 0 0 0 0 0 0 0 0 0 0 0 0 0 0 127 0"/><feMorphology radius="1" operator="dilate" in="SourceAlpha" result="filter_ceb75a11-c423-80e4-8007-b931882d825b"/><feOffset dx="0" dy="0"/><feGaussianBlur stdDeviation="0.5"/><feColorMatrix type="matrix" values="0 0 0 0 0.4196078431372549 0 0 0 0 0.45098039215686275 0 0 0 0 0.37254901960784315 0 0 0 1 0"/><feBlend mode="normal" in2="BackgroundImageFix" result="filter_ceb75a11-c423-80e4-8007-b931882d825b"/><feBlend mode="normal" in="SourceGraphic" in2="filter_ceb75a11-c423-80e4-8007-b931882d825b" result="shape"/></filter><filter id="filter-shadow-render-2" x="-0.35" y="-0.42" width="1.7" height="1.84" filterUnits="objectBoundingBox" color-interpolation-filters="sRGB"><feFlood flood-opacity="0" result="BackgroundImageFix"/><feColorMatrix in="SourceAlpha" type="matrix" values="0 0 0 0 0 0 0 0 0 0 0 0 0 0 0 0 0 0 127 0"/><feMorphology radius="1" operator="dilate" in="SourceAlpha" result="filter_ceb75a11-c423-80e4-8007-b931882d825b"/><feOffset dx="0" dy="0"/><feGaussianBlur stdDeviation="0.5"/><feColorMatrix type="matrix" values="0 0 0 0 0.4196078431372549 0 0 0 0 0.45098039215686275 0 0 0 0 0.37254901960784315 0 0 0 1 0"/><feBlend mode="normal" in2="BackgroundImageFix" result="filter_ceb75a11-c423-80e4-8007-b931882d825b"/><feBlend mode="normal" in="SourceGraphic" in2="filter_ceb75a11-c423-80e4-8007-b931882d825b" result="shape"/></filter></defs><g class="fills" id="fills-ceb75a11-c423-80e4-8007-b91601cb5926"><rect width="60" height="50" x="0" transform="matrix(1.000000, 0.000000, 0.000000, 1.000000, 0.000000, 0.000000)" style="fill: rgb(16, 16, 16); fill-opacity: 1;" ry="16" rx="16" filter="url(#filter-render-2)" y="0"/></g></g><g id="shape-ceb75a11-c423-80e4-8007-b931bdd7b05f" width="512" height="512" rx="0" ry="0" style="fill: rgb(0, 0, 0);"><g id="shape-ceb75a11-c423-80e4-8007-b931bdd83bcb" style="display: none;"><g class="fills" id="fills-ceb75a11-c423-80e4-8007-b931bdd83bcb"><rect width="35" height="35" x="12.5" transform="matrix(1.000000, 0.000000, 0.000000, 1.000000, 0.000000, 0.000000)" style="fill: rgb(107, 115, 95); fill-opacity: 1;" ry="0" fill="none" rx="0" y="7.5"/></g></g><g id="shape-ceb75a11-c423-80e4-8007-b931bdd83bcc"><g class="fills" id="fills-ceb75a11-c423-80e4-8007-b931bdd83bcc"><path d="M47.432861328125,15.58203125L35.15673828125,27.8583984375C32.306640625,30.701171875,27.693359375,30.701171875,24.84326171875,27.8583984375L12.567138671875,15.58203125C12.546630859375,15.8125,12.5,16.02099609375,12.5,16.25L12.5,33.75C12.5048828125,37.7750244140625,15.7666015625,41.036865234375,19.79150390625,41.041748046875L40.20849609375,41.041748046875C44.2333984375,41.036865234375,47.4951171875,37.7750244140625,47.5,33.75L47.5,16.25C47.5,16.02099609375,47.453369140625,15.8125,47.432861328125,15.58203125Z" style="fill: rgb(107, 115, 95); fill-opacity: 1;"/></g></g><g id="shape-ceb75a11-c423-80e4-8007-b931bdd8899e"><g class="fills" id="fills-ceb75a11-c423-80e4-8007-b931bdd8899e"><path d="M33.0947265625,25.7962646484375L46.4150390625,12.474365234375C45.1025390625,10.29833984375,42.74951171875,8.96533203125,40.20849609375,8.958251953125L19.79150390625,8.958251953125C17.25048828125,8.96533203125,14.8974609375,10.29833984375,13.5849609375,12.474365234375L26.9052734375,25.7962646484375C28.616455078125,27.50048828125,31.383544921875,27.50048828125,33.0947265625,25.7962646484375Z" style="fill: rgb(107, 115, 95); fill-opacity: 1;"/></g></g></g></g></svg>