<svg width="114" xmlns="http://www.w3.org/2000/svg" height="104" id="screenshot-ceb75a11-c423-80e4-8007-b931ed10a03d" viewBox="-21 -21 114 104" xmlns:xlink="http://www.w3.org/1999/xlink" fill="none" version="1.1"><g id="shape-ceb75a11-c423-80e4-8007-b931ed10a03d" rx="0" ry="0"><g id="shape-ceb75a11-c423-80e4-8007-b915f08e7e06"><defs><filter id="filter-render-8" x="-0.35000000000000264" y="-0.42" width="1.9000000000000068" height="2.08" filterUnits="objectBoundingBox" color-interpolation-filters="sRGB"><feFlood flood-opacity="0" result="BackgroundImageFix"/><feColorMatrix in="SourceAlpha" type="matrix" values="0 0 0 0 0 0 0 0 0 0 0 0 0 0 0 0 0 0 127 0"/><feMorphology radius="1" operator="dilate" in="SourceAlpha" result="filter_ceb75a11-c423-80e4-8007-b931882d825b"/><feOffset dx="4" dy="4"/><feGaussianBlur stdDeviation="0.5"/><feColorMatrix type="matrix" values="0 0 0 0 0.4196078431372549 0 0 0 0 0.45098039215686275 0 0 0 0 0.37254901960784315 0 0 0 1 0"/><feBlend mode="normal" in2="BackgroundImageFix" result="filter_ceb75a11-c423-80e4-8007-b931882d825b"/><feBlend mode="normal" in="SourceGraphic" in2="filter_ceb75a11-c423-80e4-8007-b931882d825b" result="shape"/></filter><filter id="filter-shadow-render-8" x="-0.35000000000000264" y="-0.42" width="1.9000000000000068" height="2.08" filterUnits="objectBoundingBox" color-interpolation-filters="sRGB"><feFlood flood-opacity="0" result="BackgroundImageFix"/><feColorMatrix in="SourceAlpha" type="matrix" values="0 0 0 0 0 0 0 0 0 0 0 0 0 0 0 0 0 0 127 0"/><feMorphology radius="1" operator="dilate" in="SourceAlpha" result="filter_ceb75a11-c423-80e4-8007-b931882d825b"/><feOffset dx="4" dy="4"/><feGaussianBlur stdDeviation="0.5"/><feColorMatrix type="matrix" values="0 0 0 0 0.4196078431372549 0 0 0 0 0.45098039215686275 0 0 0 0 0.37254901960784315 0 0 0 1 0"/><feBlend mode="normal" in2="BackgroundImageFix" result="filter_ceb75a11-c423-80e4-8007-b931882d825b"/><feBlend mode="normal" in="SourceGraphic" in2="filter_ceb75a11-c423-80e4-8007-b931882d825b" result="shape"/></filter></defs><g class="fills" id="fills-ceb75a11-c423-80e4-8007-b915f08e7e06"><rect width="59.999999999999545" height="50" x="0" transform="matrix(1.000000, 0.000000, 0.000000, 1.000000, 0.000000, 0.000000)" style="fill: rgb(16, 16, 16); fill-opacity: 1;" ry="16" rx="16" filter="url(#filter-render-8)" y="0"/></g></g><g id="shape-ceb75a11-c423-80e4-8007-b931bdc7eede" height="512" xml:space="preserve" width="512" rx="0" ry="0" style="fill: rgb(0, 0, 0);"><g id="shape-ceb75a11-c423-80e4-8007-b931bdca2583" style="display: none;"><g class="fills" id="fills-ceb75a11-c423-80e4-8007-b931bdca2583"><rect width="34.99854252844807" height="35" x="12.499999999999545" transform="matrix(1.000000, 0.000000, 0.000000, 1.000000, 0.000000, 0.000000)" style="fill: none;" ry="0" fill="none" rx="0" y="7.5"/></g></g><g id="shape-ceb75a11-c423-80e4-8007-b931bdca5933"><g class="fills" id="fills-ceb75a11-c423-80e4-8007-b931bdca5933"><path d="M29.999267578125,7.931640625C20.33544921875,7.931640625,12.5,15.765869140625,12.5,25.431640625C12.5,33.1636962890625,17.513427734375,39.723388671875,24.466796875,42.0377197265625C25.341796875,42.1995849609375,25.662353515625,41.658447265625,25.662353515625,41.1961669921875C25.662353515625,40.7791748046875,25.646484375,39.401123046875,25.63916015625,37.9383544921875C20.771240234375,38.9970703125,19.743408203125,35.873291015625,19.743408203125,35.873291015625C18.947265625,33.8505859375,17.80078125,33.3125,17.80078125,33.3125C16.212890625,32.22607421875,17.92041015625,32.2493896484375,17.92041015625,32.2493896484375C19.677734375,32.373291015625,20.602294921875,34.0533447265625,20.602294921875,34.0533447265625C22.16259765625,36.7279052734375,24.69580078125,35.9549560546875,25.6943359375,35.50732421875C25.85205078125,34.375732421875,26.3056640625,33.6041259765625,26.8056640625,33.1666259765625C22.91943359375,32.724853515625,18.833251953125,31.22412109375,18.833251953125,24.518798828125C18.833251953125,22.6083984375,19.51708984375,21.04638671875,20.63720703125,19.821533203125C20.455078125,19.379638671875,19.85546875,17.600341796875,20.806396484375,15.1898193359375C20.806396484375,15.1898193359375,22.2763671875,14.72021484375,25.6201171875,16.9835205078125C27.015625,16.595703125,28.51171875,16.401611328125,29.999267578125,16.394287109375C31.48681640625,16.401611328125,32.984375,16.595703125,34.3828125,16.9835205078125C37.722412109375,14.71875,39.19091796875,15.1898193359375,39.19091796875,15.1898193359375C40.14306640625,17.600341796875,39.54345703125,19.379638671875,39.36279296875,19.821533203125C40.484130859375,21.04638671875,41.163818359375,22.6083984375,41.163818359375,24.518798828125C41.163818359375,31.240234375,37.0703125,32.720458984375,33.173828125,33.153564453125C33.80078125,33.696044921875,34.36083984375,34.7620849609375,34.36083984375,36.3939208984375C34.36083984375,38.736083984375,34.3408203125,40.6202392578125,34.3408203125,41.1961669921875C34.3408203125,41.661376953125,34.655517578125,42.208251953125,35.542236328125,42.0362548828125C42.492431640625,39.718994140625,47.5,33.162353515625,47.5,25.43310546875C47.49853515625,15.767333984375,39.6630859375,7.931640625,29.999267578125,7.931640625Z" style="fill-rule: evenodd; clip-rule: evenodd; fill: rgb(107, 115, 95); fill-opacity: 1;"/></g></g><g id="shape-ceb75a11-c423-80e4-8007-b931bdca5934"><g class="fills" id="fills-ceb75a11-c423-80e4-8007-b931bdca5934"><path d="M19.1279296875,33.058837890625C19.08984375,33.146240234375,18.952880859375,33.1724853515625,18.82763671875,33.1126708984375C18.70068359375,33.055908203125,18.629150390625,32.936279296875,18.669921875,32.8502197265625C18.7080078125,32.76123046875,18.844970703125,32.7364501953125,18.9716796875,32.7962646484375C19.0986328125,32.8516845703125,19.17138671875,32.97119140625,19.1279296875,33.058837890625L19.1279296875,33.058837890625Z"/></g></g><g id="shape-ceb75a11-c423-80e4-8007-b931bdca92da"><g class="fills" id="fills-ceb75a11-c423-80e4-8007-b931bdca92da"><path d="M19.836669921875,33.84912109375C19.75341796875,33.926513671875,19.590087890625,33.8900146484375,19.479248046875,33.76904296875C19.3642578125,33.646484375,19.34375,33.483154296875,19.42822265625,33.40576171875C19.514404296875,33.3284912109375,19.671630859375,33.364990234375,19.787109375,33.487548828125C19.902099609375,33.608642578125,19.92431640625,33.7703857421875,19.836669921875,33.84912109375L19.836669921875,33.84912109375Z"/></g></g><g id="shape-ceb75a11-c423-80e4-8007-b931bdca92db"><g class="fills" id="fills-ceb75a11-c423-80e4-8007-b931bdca92db"><path d="M20.5263671875,34.85693359375C20.41845703125,34.93115234375,20.24365234375,34.8612060546875,20.1357421875,34.7066650390625C20.027587890625,34.5506591796875,20.027587890625,34.364013671875,20.138427734375,34.28955078125C20.246337890625,34.2152099609375,20.419921875,34.2822265625,20.529296875,34.4368896484375C20.6357421875,34.5943603515625,20.6357421875,34.781005859375,20.5263671875,34.85693359375L20.5263671875,34.85693359375Z"/></g></g><g id="shape-ceb75a11-c423-80e4-8007-b931bdca92dc"><g class="fills" id="fills-ceb75a11-c423-80e4-8007-b931bdca92dc"><path d="M21.47119140625,35.8310546875C21.375,35.9375,21.1708984375,35.9083251953125,21.02197265625,35.763916015625C20.869140625,35.62255859375,20.82666015625,35.4227294921875,20.923095703125,35.316162109375C21.020751953125,35.209716796875,21.226318359375,35.2403564453125,21.37646484375,35.38330078125C21.528076171875,35.5247802734375,21.5732421875,35.72607421875,21.47119140625,35.8310546875L21.47119140625,35.8310546875Z"/></g></g><g id="shape-ceb75a11-c423-80e4-8007-b931bdcac392"><g class="fills" id="fills-ceb75a11-c423-80e4-8007-b931bdcac392"><path d="M22.7763671875,36.3953857421875C22.734375,36.532470703125,22.537353515625,36.59521484375,22.339111328125,36.536865234375C22.140869140625,36.47705078125,22.0107421875,36.316650390625,22.0517578125,36.17822265625C22.092529296875,36.03955078125,22.290771484375,35.975341796875,22.49072265625,36.0380859375C22.687744140625,36.096435546875,22.817138671875,36.2568359375,22.7763671875,36.3953857421875L22.7763671875,36.3953857421875Z"/></g></g><g id="shape-ceb75a11-c423-80e4-8007-b931bdcb0ec6"><g class="fills" id="fills-ceb75a11-c423-80e4-8007-b931bdcb0ec6"><path d="M24.20849609375,36.5003662109375C24.212646484375,36.644775390625,24.045166015625,36.764404296875,23.83642578125,36.767333984375C23.6279296875,36.7716064453125,23.457275390625,36.655029296875,23.455810546875,36.5135498046875C23.455810546875,36.36767578125,23.620849609375,36.24951171875,23.829345703125,36.2452392578125C24.037841796875,36.2408447265625,24.20849609375,36.357421875,24.20849609375,36.5003662109375L24.20849609375,36.5003662109375Z"/></g></g><g id="shape-ceb75a11-c423-80e4-8007-b931bdcb0ec7"><g class="fills" id="fills-ceb75a11-c423-80e4-8007-b931bdcb0ec7"><path d="M25.54150390625,36.2742919921875C25.566162109375,36.414306640625,25.421875,36.5601806640625,25.21484375,36.59814453125C25.011962890625,36.635986328125,24.82373046875,36.548583984375,24.797607421875,36.4085693359375C24.772705078125,36.26416015625,24.920166015625,36.119873046875,25.123046875,36.081787109375C25.328369140625,36.04541015625,25.51513671875,36.1298828125,25.54150390625,36.2742919921875L25.54150390625,36.2742919921875Z"/></g></g></g></g></svg>