<svg width="114" xmlns="http://www.w3.org/2000/svg" height="104" id="screenshot-ceb75a11-c423-80e4-8007-b934c2ac67e2" viewBox="-21 -21 114 104" xmlns:xlink="http://www.w3.org/1999/xlink" fill="none" version="1.1"><g id="shape-ceb75a11-c423-80e4-8007-b934c2ac67e2" rx="0" ry="0"><g id="shape-ceb75a11-c423-80e4-8007-b91602d79efe"><defs><filter id="filter-render-20" x="-0.35" y="-0.42" width="1.9" height="2.08" filterUnits="objectBoundingBox" color-interpolation-filters="sRGB"><feFlood flood-opacity="0" result="BackgroundImageFix"/><feColorMatrix in="SourceAlpha" type="matrix" values="0 0 0 0 0 0 0 0 0 0 0 0 0 0 0 0 0 0 127 0"/><feMorphology radius="1" operator="dilate" in="SourceAlpha" result="filter_ceb75a11-c423-80e4-8007-b931882d825b"/><feOffset dx="4" dy="4"/><feGaussianBlur stdDeviation="0.5"/><feColorMatrix type="matrix" values="0 0 0 0 0.4196078431372549 0 0 0 0 0.45098039215686275 0 0 0 0 0.37254901960784315 0 0 0 1 0"/><feBlend mode="normal" in2="BackgroundImageFix" result="filter_ceb75a11-c423-80e4-8007-b931882d825b"/><feBlend mode="normal" in="SourceGraphic" in2="filter_ceb75a11-c423-80e4-8007-b931882d825b" result="shape"/></filter><filter id="filter-shadow-render-20" x="-0.35" y="-0.42" width="1.9" height="2.08" filterUnits="objectBoundingBox" color-interpolation-filters="sRGB"><feFlood flood-opacity="0" result="BackgroundImageFix"/><feColorMatrix in="SourceAlpha" type="matrix" values="0 0 0 0 0 0 0 0 0 0 0 0 0 0 0 0 0 0 127 0"/><feMorphology radius="1" operator="dilate" in="SourceAlpha" result="filter_ceb75a11-c423-80e4-8007-b931882d825b"/><feOffset dx="4" dy="4"/><feGaussianBlur stdDeviation="0.5"/><feColorMatrix type="matrix" values="0 0 0 0 0.4196078431372549 0 0 0 0 0.45098039215686275 0 0 0 0 0.37254901960784315 0 0 0 1 0"/><feBlend mode="normal" in2="BackgroundImageFix" result="filter_ceb75a11-c423-80e4-8007-b931882d825b"/><feBlend mode="normal" in="SourceGraphic" in2="filter_ceb75a11-c423-80e4-8007-b931882d825b" result="shape"/></filter></defs><g class="fills" id="fills-ceb75a11-c423-80e4-8007-b91602d79efe"><rect width="60" height="50" x="0" transform="matrix(1.000000, 0.000000, 0.000000, 1.000000, 0.000000, 0.000000)" style="fill: rgb(16, 16, 16); fill-opacity: 1;" ry="16" rx="16" filter="url(#filter-render-20)" y="0"/></g></g><g id="shape-ceb75a11-c423-80e4-8007-b934b3faac3b" height="235.452" width="261.728" rx="0" ry="0" style="fill: rgb(0, 0, 0);"><g id="shape-ceb75a11-c423-80e4-8007-b934b3fb0dca" style="display: none;"><g class="fills" id="fills-ceb75a11-c423-80e4-8007-b934b3fb0dca"><rect width="38.80090497737547" height="35" x="10.599547511312267" transform="matrix(1.000000, 0.000000, 0.000000, 1.000000, 0.000000, 0.000000)" style="fill: rgb(107, 115, 95); fill-opacity: 1;" ry="0" fill="none" rx="0" y="7.5"/></g></g><g id="shape-ceb75a11-c423-80e4-8007-b934b3fc1ba1"><g class="fills" id="fills-ceb75a11-c423-80e4-8007-b934b3fc1ba1"><path d="M15.658203125,7.7164306640625C13.965576171875,8.72412109375,10.631103515625,12.565185546875,10.599609375,13.572509765625L10.599609375,15.239990234375C10.599609375,17.353515625,12.56982421875,19.2113037109375,14.35888671875,19.2113037109375C16.5068359375,19.2113037109375,18.296630859375,17.42626953125,18.296875,15.3074951171875C18.296875,17.42626953125,20.025146484375,19.2113037109375,22.17333984375,19.2113037109375C24.32177734375,19.2113037109375,25.99462890625,17.42626953125,25.99462890625,15.3074951171875C25.99462890625,17.42626953125,27.83251953125,19.2113037109375,29.980712890625,19.2113037109375L30.01953125,19.2113037109375C32.16796875,19.2113037109375,34.005859375,17.42626953125,34.005859375,15.3074951171875C34.005859375,17.42626953125,35.6787109375,19.2113037109375,37.826904296875,19.2113037109375C39.97509765625,19.2113037109375,41.703369140625,17.42626953125,41.703369140625,15.3074951171875C41.703369140625,17.42626953125,43.49365234375,19.2113037109375,45.641357421875,19.2113037109375C47.430419921875,19.2113037109375,49.400634765625,17.3538818359375,49.400634765625,15.239990234375L49.400634765625,13.572509765625C49.369140625,12.5650634765625,46.034423828125,8.7237548828125,44.34228515625,7.7164306640625C39.08203125,7.53125,35.43505859375,7.499267578125,30,7.5C24.56494140625,7.50048828125,17.1552734375,7.585693359375,15.65771484375,7.7164306640625ZM25.96728515625,18.2158203125C25.761962890625,18.5748291015625,25.507568359375,18.9033203125,25.21142578125,19.1917724609375C24.400634765625,19.98681640625,23.2890625,20.4796142578125,22.063720703125,20.4796142578125C20.884521484375,20.480712890625,19.752197265625,20.01806640625,18.9091796875,19.191162109375C18.615478515625,18.902587890625,18.392333984375,18.593994140625,18.187744140625,18.234619140625L18.18701171875,18.2353515625C17.982421875,18.59521484375,17.697998046875,18.903564453125,17.403564453125,19.192626953125C16.560546875,20.0189208984375,15.427978515625,20.481201171875,14.2490234375,20.47998046875C14.101318359375,20.47998046875,13.94775390625,20.439208984375,13.8232421875,20.3963623046875C13.650634765625,22.199462890625,13.57763671875,23.9227294921875,13.552001953125,25.17919921875L13.5517578125,25.186279296875C13.548583984375,25.8243408203125,13.54541015625,26.34912109375,13.542236328125,27.077880859375C13.575439453125,30.861083984375,13.16845703125,39.340087890625,15.205810546875,41.42333984375C18.36279296875,42.161376953125,24.171875,42.49755859375,29.999755859375,42.499755859375L30.000732421875,42.499755859375C35.82861328125,42.49755859375,41.6376953125,42.161376953125,44.794677734375,41.42333984375C46.831787109375,39.33984375,46.4248046875,30.861083984375,46.4580078125,27.0777587890625C46.45458984375,26.34912109375,46.45166015625,25.8243408203125,46.448486328125,25.1861572265625L46.4482421875,25.1790771484375C46.422607421875,23.92236328125,46.349609375,22.19921875,46.1767578125,20.39599609375C46.052734375,20.4388427734375,45.899169921875,20.479736328125,45.751220703125,20.479736328125C44.572265625,20.4808349609375,43.43994140625,20.0185546875,42.596923828125,19.192138671875C42.302490234375,18.9033203125,42.017822265625,18.5950927734375,41.813232421875,18.235107421875L41.812255859375,18.234375C41.607666015625,18.59375,41.384521484375,18.90234375,41.0908203125,19.1907958984375C40.248046875,20.0177001953125,39.11572265625,20.480224609375,37.9365234375,20.4791259765625C36.711181640625,20.4791259765625,35.599609375,19.9859619140625,34.788818359375,19.191162109375C34.49267578125,18.9027099609375,34.23828125,18.57421875,34.032958984375,18.2152099609375C33.829833984375,18.57373046875,33.57763671875,18.90234375,33.283935546875,19.191162109375C32.441162109375,20.0179443359375,31.30859375,20.48046875,30.129150390625,20.479248046875C30.08642578125,20.479248046875,30.0439453125,20.4774169921875,30.001220703125,20.47607421875L30,20.47607421875C29.95751953125,20.4774169921875,29.91455078125,20.479248046875,29.87158203125,20.479248046875C28.6923828125,20.48046875,27.5595703125,20.01806640625,26.716796875,19.1912841796875C26.423095703125,18.9024658203125,26.171142578125,18.573974609375,25.9677734375,18.21533203125ZM22.72802734375,22.416015625L22.7275390625,22.417724609375L22.72998046875,22.417724609375C24.012939453125,22.42041015625,25.152587890625,22.417724609375,26.564697265625,23.9630126953125C27.676025390625,23.84619140625,28.83740234375,23.787841796875,29.99951171875,23.78955078125L30.00048828125,23.78955078125C31.162841796875,23.7879638671875,32.32421875,23.84619140625,33.435546875,23.9630126953125C34.84765625,22.41748046875,35.9873046875,22.420166015625,37.270263671875,22.417724609375L37.2724609375,22.417724609375L37.272216796875,22.416015625C37.87841796875,22.416015625,40.302978515625,22.416015625,41.992431640625,27.174072265625L43.80712890625,33.701171875C45.15185546875,38.556884765625,43.37646484375,38.675537109375,41.162109375,38.679931640625C37.8779296875,38.557373046875,36.0595703125,36.166015625,36.0595703125,33.77490234375C34.24169921875,34.0736083984375,32.12109375,34.2230224609375,30.00048828125,34.22314453125L29.99951171875,34.22314453125C27.87841796875,34.22314453125,25.7578125,34.0736083984375,23.940185546875,33.77490234375C23.940185546875,36.166015625,22.12158203125,38.557373046875,18.837646484375,38.679931640625C16.623291015625,38.675537109375,14.84814453125,38.55712890625,16.19287109375,33.701171875L18.0078125,27.1741943359375C19.697509765625,22.416259765625,22.1220703125,22.416259765625,22.728271484375,22.416259765625ZM29.99951171875,26.1552734375L29.99951171875,26.15625C29.99658203125,26.159423828125,26.54248046875,29.340087890625,25.92138671875,30.471435546875L28.18310546875,30.380615234375L28.18310546875,32.3585205078125C28.18310546875,32.4510498046875,29.091064453125,32.413330078125,29.99951171875,32.37109375L30.00048828125,32.37109375C30.908935546875,32.413330078125,31.81689453125,32.4510498046875,31.81689453125,32.3585205078125L31.81689453125,30.380615234375L34.07861328125,30.471435546875C33.45751953125,29.340087890625,30.00048828125,26.15625,30.00048828125,26.15625L30.00048828125,26.1552734375L30,26.155517578125Z" color="#000" style="fill: rgb(107, 115, 95); fill-opacity: 1;"/></g></g></g></g></svg>