<svg width="114" xmlns="http://www.w3.org/2000/svg" height="104" id="screenshot-ceb75a11-c423-80e4-8007-b9322dec1c5d" viewBox="-21 -21 114 104" xmlns:xlink="http://www.w3.org/1999/xlink" fill="none" version="1.1"><g id="shape-ceb75a11-c423-80e4-8007-b9322dec1c5d" rx="0" ry="0"><g id="shape-ceb75a11-c423-80e4-8007-b915fe663a11"><defs><filter id="filter-render-25" x="-0.35" y="-0.42" width="1.9" height="2.08" filterUnits="objectBoundingBox" color-interpolation-filters="sRGB"><feFlood flood-opacity="0" result="BackgroundImageFix"/><feColorMatrix in="SourceAlpha" type="matrix" values="0 0 0 0 0 0 0 0 0 0 0 0 0 0 0 0 0 0 127 0"/><feMorphology radius="1" operator="dilate" in="SourceAlpha" result="filter_ceb75a11-c423-80e4-8007-b931882d825b"/><feOffset dx="4" dy="4"/><feGaussianBlur stdDeviation="0.5"/><feColorMatrix type="matrix" values="0 0 0 0 0.4196078431372549 0 0 0 0 0.45098039215686275 0 0 0 0 0.37254901960784315 0 0 0 1 0"/><feBlend mode="normal" in2="BackgroundImageFix" result="filter_ceb75a11-c423-80e4-8007-b931882d825b"/><feBlend mode="normal" in="SourceGraphic" in2="filter_ceb75a11-c423-80e4-8007-b931882d825b" result="shape"/></filter><filter id="filter-shadow-render-25" x="-0.35" y="-0.42" width="1.9" height="2.08" filterUnits="objectBoundingBox" color-interpolation-filters="sRGB"><feFlood flood-opacity="0" result="BackgroundImageFix"/><feColorMatrix in="SourceAlpha" type="matrix" values="0 0 0 0 0 0 0 0 0 0 0 0 0 0 0 0 0 0 127 0"/><feMorphology radius="1" operator="dilate" in="SourceAlpha" result="filter_ceb75a11-c423-80e4-8007-b931882d825b"/><feOffset dx="4" dy="4"/><feGaussianBlur stdDeviation="0.5"/><feColorMatrix type="matrix" values="0 0 0 0 0.4196078431372549 0 0 0 0 0.45098039215686275 0 0 0 0 0.37254901960784315 0 0 0 1 0"/><feBlend mode="normal" in2="BackgroundImageFix" result="filter_ceb75a11-c423-80e4-8007-b931882d825b"/><feBlend mode="normal" in="SourceGraphic" in2="filter_ceb75a11-c423-80e4-8007-b931882d825b" result="shape"/></filter></defs><g class="fills" id="fills-ceb75a11-c423-80e4-8007-b915fe663a11"><rect width="60" height="50" x="0" transform="matrix(1.000000, 0.000000, 0.000000, 1.000000, 0.000000, 0.000000)" style="fill: rgb(16, 16, 16); fill-opacity: 1;" ry="16" rx="16" filter="url(#filter-render-25)" y="0"/></g></g><g id="shape-ceb75a11-c423-80e4-8007-b931bda8ff2d" height="512" xml:space="preserve" width="512" rx="0" ry="0" style="fill: rgb(0, 0, 0);"><g id="shape-ceb75a11-c423-80e4-8007-b931bdab80fe" style="display: none;"><g class="fills" id="fills-ceb75a11-c423-80e4-8007-b931bdab80fe"><rect width="35" height="35" x="12.5" transform="matrix(1.000000, 0.000000, 0.000000, 1.000000, 0.000000, 0.000000)" style="fill: none;" ry="0" fill="none" rx="0" y="7.5"/></g></g><g id="shape-ceb75a11-c423-80e4-8007-b931bdad4157"><g class="fills" id="fills-ceb75a11-c423-80e4-8007-b931bdad4157"><path d="M30,7.5C20.335693359375,7.5,12.5,15.3355712890625,12.5,25C12.5,34.664306640625,20.335693359375,42.5,30,42.5C39.664306640625,42.5,47.5,34.664306640625,47.5,25C47.5,15.3355712890625,39.664306640625,7.5,30,7.5ZM38.111328125,19.4014892578125C37.848876953125,22.16796875,36.70849609375,28.883544921875,36.12939453125,31.982421875C35.88427734375,33.294921875,35.400146484375,33.7340087890625,34.93359375,33.7762451171875C33.9169921875,33.86962890625,33.1455078125,33.10400390625,32.1611328125,32.4593505859375C30.621337890625,31.4501953125,29.75048828125,30.8216552734375,28.255859375,29.8358154296875C26.52783203125,28.69677734375,27.647705078125,28.0711669921875,28.632080078125,27.049072265625C28.89013671875,26.7806396484375,33.367431640625,22.70751953125,33.454833984375,22.338623046875C33.46484375,22.2918701171875,33.4765625,22.1197509765625,33.373046875,22.029296875C33.26953125,21.93896484375,33.119384765625,21.969482421875,33.01123046875,21.994384765625C32.85693359375,22.029296875,30.396484375,23.6553955078125,25.62939453125,26.87255859375C24.9306640625,27.352294921875,24.298095703125,27.585693359375,23.73046875,27.573974609375C23.1064453125,27.560791015625,21.90478515625,27.2210693359375,21.0107421875,26.929443359375C19.91552734375,26.573486328125,19.04345703125,26.384033203125,19.11962890625,25.7802734375C19.15869140625,25.4652099609375,19.591796875,25.142822265625,20.42041015625,24.8133544921875C25.521484375,22.5908203125,28.923828125,21.125244140625,30.62548828125,20.41650390625C35.486328125,18.395263671875,36.495361328125,18.043701171875,37.154541015625,18.031982421875C37.97998046875,18.0203857421875,38.17822265625,18.701416015625,38.111328125,19.4014892578125Z" style="fill-rule: evenodd; clip-rule: evenodd; fill: rgb(107, 115, 95); fill-opacity: 1;"/></g></g></g></g></svg>